# xmcd
#
# Track frame offsets:
#	150
#	12927
#	26740
#	39022
#	49992
#	60087
#	71380
#	83932
#	98355
#	109237
#	119692
#	130327
#	143595
#	156845
#	168450
#	179312
#	192630
#	206005
#	219275
#	227847
#
# Disc length: 3187 seconds
# Revision: 1
# Processed by: cddbd v1.5.2PL0 Copyright (c) Steve Scherf et al.
# Submitted via: dBpowerAMP V12.0
#
DISCID=100c7114
DTITLE=Carl Smith - The Legendary Carl Smith
DYEAR=1998
DGENRE=Country
TTITLE0=Let Old Mother Nature Have Her Way
TTITLE1=Mr Moon
TTITLE2=Just Wait Till I Get You Alone
TTITLE3=Back Up Buddy
TTITLE4=Deep Water
TTITLE5=Hey Joe
TTITLE6=Are You Teasing Me
TTITLE7=If Teardrops Were Pennies
TTITLE8=It's A Lovely, Lovely World
TTITLE9=You Are The One
TTITLE10=Don't Just Stand There
TTITLE11=Satisfaction Guaranteed
TTITLE12=Kisses Don't Lie
TTITLE13=Our Honeymoon
TTITLE14=Trademark
TTITLE15=Let's Live A Little
TTITLE16=Take My Ring Off Your Finger
TTITLE17=I Overlooked An Orchid
TTITLE18=Go, Boy Go
TTITLE19=This Orchid Means Goodbye
EXTD=
EXTT0=
EXTT1=
EXTT2=
EXTT3=
EXTT4=
EXTT5=
EXTT6=
EXTT7=
EXTT8=
EXTT9=
EXTT10=
EXTT11=
EXTT12=
EXTT13=
EXTT14=
EXTT15=
EXTT16=
EXTT17=
EXTT18=
EXTT19=
PLAYORDER=
